<?xml version="1.0" standalone="no"?>
<!DOCTYPE svg PUBLIC "-//W3C//DTD SVG 20010904//EN"
 "http://www.w3.org/TR/2001/REC-SVG-20010904/DTD/svg10.dtd">
<svg version="1.0" xmlns="http://www.w3.org/2000/svg"
 width="1200.000000pt" height="1200.000000pt" viewBox="0 0 1200.000000 1200.000000"
 preserveAspectRatio="xMidYMid meet">
<metadata>
Created by potrace 1.16, written by Peter Selinger 2001-2019
</metadata>
<g transform="translate(0.000000,1200.000000) scale(0.100000,-0.100000)"
fill="#000000" stroke="none">
<path d="M5615 11329 c-1125 -89 -2172 -521 -3045 -1257 -160 -136 -466 -442
-602 -602 -743 -881 -1170 -1923 -1258 -3069 -13 -174 -13 -607 1 -786 84
-1126 507 -2165 1240 -3046 133 -160 478 -505 639 -639 468 -389 962 -682
1508 -894 490 -191 983 -302 1527 -346 170 -14 637 -13 812 0 690 54 1345 233
1958 536 745 367 1402 913 1906 1584 609 810 968 1768 1049 2793 13 175 14
642 0 812 -73 915 -358 1756 -848 2505 -214 328 -414 573 -702 860 -434 435
-855 738 -1401 1009 -621 309 -1277 488 -1974 540 -163 13 -651 12 -810 0z
m650 -199 c1273 -64 2435 -568 3339 -1450 883 -861 1409 -1961 1532 -3204 21
-208 24 -687 5 -886 -82 -882 -352 -1666 -819 -2380 -206 -315 -388 -538 -671
-821 -283 -283 -506 -465 -821 -671 -714 -467 -1498 -737 -2380 -819 -199 -19
-678 -16 -886 5 -1243 123 -2343 649 -3204 1532 -1192 1222 -1693 2935 -1349
4614 169 822 542 1591 1100 2261 133 159 459 485 618 618 880 733 1927 1145
3051 1201 219 11 268 11 485 0z"/>
<path d="M5921 9899 c-652 -63 -1208 -501 -1424 -1125 -68 -195 -82 -290 -82
-549 1 -199 4 -244 23 -332 50 -230 151 -463 279 -643 83 -116 260 -294 371
-375 297 -215 636 -325 997 -325 456 0 873 174 1195 500 230 232 380 512 452
843 19 88 22 133 23 332 0 204 -3 242 -23 339 -47 217 -132 421 -251 598 -346
515 -942 797 -1560 737z"/>
<path d="M4905 6526 c-150 -55 -161 -62 -261 -158 -346 -334 -545 -799 -580
-1359 l-7 -106 74 -17 c348 -78 621 -463 694 -978 8 -57 15 -135 15 -174 l0
-71 -81 -67 c-61 -52 -79 -72 -73 -84 31 -69 4 -145 -61 -176 -69 -33 -154 7
-175 84 -26 95 72 185 165 151 31 -11 37 -9 103 36 82 55 80 48 62 223 -26
249 -100 470 -219 650 -88 133 -245 264 -364 304 -167 56 -344 32 -493 -65
-85 -55 -208 -187 -266 -285 -112 -192 -178 -421 -193 -676 l-7 -103 66 -42
c58 -38 70 -42 108 -37 74 9 148 -53 148 -124 0 -83 -107 -155 -176 -119 -71
37 -100 107 -70 168 9 17 16 35 16 39 0 3 -32 33 -71 65 l-72 60 6 115 c19
363 159 708 372 915 92 90 168 139 264 172 l66 22 12 143 c29 333 100 601 225
853 79 160 175 301 276 408 31 31 53 60 50 63 -14 13 -272 -137 -438 -256
-479 -343 -863 -816 -1103 -1360 -148 -336 -251 -712 -288 -1046 l-13 -111 49
-69 c150 -214 363 -442 555 -594 297 -236 681 -439 1085 -572 363 -120 808
-203 1285 -239 209 -16 787 -16 990 0 757 59 1316 203 1853 478 432 221 798
537 1072 926 l48 68 -7 77 c-10 110 -51 326 -91 477 -204 780 -681 1471 -1338
1943 -151 108 -461 291 -473 280 -2 -3 28 -40 67 -83 186 -209 327 -441 422
-695 31 -85 76 -230 91 -300 4 -22 13 -27 67 -37 277 -53 464 -347 394 -618
-45 -170 -167 -302 -334 -361 -93 -33 -229 -33 -322 0 -297 104 -432 432 -293
709 56 111 162 207 275 248 44 16 58 26 55 38 -3 9 -17 61 -31 116 -90 336
-284 666 -545 925 -106 106 -304 264 -324 257 -5 -2 -258 -443 -560 -979 -303
-537 -554 -973 -557 -970 -4 4 -239 441 -523 972 -284 530 -520 968 -524 971
-4 4 -47 -7 -97 -25z m2245 -2551 l0 -175 170 0 170 0 0 -140 0 -140 -170 0
-170 0 0 -175 0 -175 -145 0 -145 0 0 175 0 175 -170 0 -170 0 0 140 0 140
170 0 170 0 0 175 0 175 145 0 145 0 0 -175z"/>
<path d="M8093 5076 c-108 -35 -195 -118 -228 -216 -24 -72 -18 -199 13 -261
36 -74 87 -125 160 -161 60 -30 75 -33 152 -33 108 0 182 32 252 106 61 66 88
136 88 234 0 141 -64 246 -186 306 -76 38 -181 48 -251 25z"/>
</g>
</svg>
